<svg xmlns="http://www.w3.org/2000/svg" viewBox="0 0 800 600">
  <!-- Main background with texture pattern -->
  <defs>
    <pattern id="woodPattern" patternUnits="userSpaceOnUse" width="100" height="100" patternTransform="rotate(45)">
      <rect width="100" height="100" fill="#2c1e0f"/>
      <line x1="0" y1="0" x2="100" y2="0" stroke="#3a2913" stroke-width="10"/>
      <line x1="0" y1="20" x2="100" y2="20" stroke="#3a2913" stroke-width="5"/>
      <line x1="0" y1="40" x2="100" y2="40" stroke="#3a2913" stroke-width="8"/>
      <line x1="0" y1="60" x2="100" y2="60" stroke="#3a2913" stroke-width="6"/>
      <line x1="0" y1="80" x2="100" y2="80" stroke="#3a2913" stroke-width="9"/>
    </pattern>
    
    <!-- Gradient for headers -->
    <linearGradient id="headerGradient" x1="0%" y1="0%" x2="0%" y2="100%">
      <stop offset="0%" stop-color="#695234"/>
      <stop offset="100%" stop-color="#483419"/>
    </linearGradient>
    
    <!-- Glow effect for items -->
    <filter id="commonGlow" x="-20%" y="-20%" width="140%" height="140%">
      <feGaussianBlur stdDeviation="2" result="blur"/>
      <feComposite in="SourceGraphic" in2="blur" operator="over"/>
    </filter>
    
    <filter id="rareGlow" x="-20%" y="-20%" width="140%" height="140%">
      <feGaussianBlur stdDeviation="3" result="blur"/>
      <feFlood flood-color="#4b9dff"/>
      <feComposite in2="blur" operator="in" result="glow"/>
      <feComposite in="SourceGraphic" in2="glow" operator="over"/>
    </filter>
    
    <filter id="epicGlow" x="-20%" y="-20%" width="140%" height="140%">
      <feGaussianBlur stdDeviation="3" result="blur"/>
      <feFlood flood-color="#c13cff"/>
      <feComposite in2="blur" operator="in" result="glow"/>
      <feComposite in="SourceGraphic" in2="glow" operator="over"/>
    </filter>
  </defs>
  
  <!-- Main background -->
  <rect width="800" height="600" fill="#1a1410"/>
  
  <!-- Decorative frame for the entire UI -->
  <rect x="10" y="10" width="780" height="580" rx="10" fill="#2c2017" stroke="#8c7853" stroke-width="4"/>
  <rect x="20" y="20" width="760" height="560" rx="6" fill="url(#woodPattern)" stroke="#5e4b35" stroke-width="2"/>
  
  <!-- Title banner -->
  <rect x="100" y="30" width="600" height="60" rx="8" fill="#3b2f1e" stroke="#8c7853" stroke-width="3"/>
  <text x="400" y="70" font-family="Fantasy, Copperplate Gothic" font-size="30" font-weight="bold" fill="#ffda79" text-anchor="middle" filter="url(#commonGlow)">ADVENTURER'S INVENTORY</text>
  
  <!-- Backpack Container -->
  <rect x="40" y="110" width="350" height="460" rx="8" fill="#2c2016" stroke="#8c7853" stroke-width="3"/>
  <rect x="40" y="110" width="350" height="50" rx="8" fill="url(#headerGradient)" stroke="#8c7853" stroke-width="2"/>
  
  <!-- Backpack Title with fancy decorations -->
  <line x1="55" y1="135" x2="130" y2="135" stroke="#8c7853" stroke-width="2"/>
  <text x="150" y="140" font-family="Fantasy, Copperplate Gothic" font-size="22" font-weight="bold" fill="#ffda79" filter="url(#commonGlow)">BACKPACK</text>
  <line x1="250" y1="135" x2="325" y2="135" stroke="#8c7853" stroke-width="2"/>
  
  <!-- Backpack capacity indicator with gem-like appearance -->
  <rect x="270" y="115" width="70" height="24" rx="12" fill="#3b2f1e" stroke="#c0a779" stroke-width="1"/>
  <text x="305" y="132" font-family="Fantasy, Copperplate Gothic" font-size="14" fill="#e6c275" text-anchor="middle">1/3</text>
  
  <!-- Backpack item grid with ornate frames -->
  <g id="backpackSlots">
    <!-- Row 1 -->
    <rect x="60" y="175" width="90" height="90" rx="5" fill="#3b2f1e" stroke="#8c7853" stroke-width="2"/>
    <rect x="170" y="175" width="90" height="90" rx="5" fill="#3b2f1e" stroke="#8c7853" stroke-width="2"/>
    <rect x="280" y="175" width="90" height="90" rx="5" fill="#3b2f1e" stroke="#8c7853" stroke-width="2"/>
    
    <!-- Inner frame details for slots -->
    <rect x="65" y="180" width="80" height="80" rx="3" fill="#2c2016" stroke="#5e4b35" stroke-width="1"/>
    <rect x="175" y="180" width="80" height="80" rx="3" fill="#2c2016" stroke="#5e4b35" stroke-width="1"/>
    <rect x="285" y="180" width="80" height="80" rx="3" fill="#2c2016" stroke="#5e4b35" stroke-width="1"/>
  </g>
  
  <!-- Health Potion in Backpack -->
  <g filter="url(#commonGlow)">
    <circle cx="105" cy="220" r="30" fill="#6b1414"/>
    <circle cx="105" cy="220" r="25" fill="#b72525"/>
    <path d="M105 198 L115 210 L115 230 Q115 242, 105 242 Q95 242, 95 230 L95 210 Z" fill="#ff4a4a"/>
    <circle cx="100" cy="215" r="5" fill="#ffecec" opacity="0.6"/>
    <rect x="100" y="195" width="10" height="5" rx="2" fill="#763a11" stroke="#5e2e0c" stroke-width="1"/>
  </g>
  <text x="105" y="270" font-family="Fantasy" font-size="12" fill="#ffda79" text-anchor="middle">Health Potion</text>
  
  <!-- Storage Chest Container -->
  <rect x="410" y="110" width="350" height="460" rx="8" fill="#2c2016" stroke="#8c7853" stroke-width="3"/>
  <rect x="410" y="110" width="350" height="50" rx="8" fill="url(#headerGradient)" stroke="#8c7853" stroke-width="2"/>
  
  <!-- Storage Chest Title with fancy decorations -->
  <line x1="425" y1="135" x2="490" y2="135" stroke="#8c7853" stroke-width="2"/>
  <text x="560" y="140" font-family="Fantasy, Copperplate Gothic" font-size="22" font-weight="bold" fill="#ffda79" filter="url(#commonGlow)">STORAGE CHEST</text>
  <line x1="680" y1="135" x2="745" y2="135" stroke="#8c7853" stroke-width="2"/>
  
  <!-- Storage Chest item grid with ornate frames -->
  <g id="storageSlots">
    <!-- Row 1 -->
    <rect x="430" y="175" width="90" height="90" rx="5" fill="#3b2f1e" stroke="#8c7853" stroke-width="2"/>
    <rect x="540" y="175" width="90" height="90" rx="5" fill="#3b2f1e" stroke="#8c7853" stroke-width="2"/>
    <rect x="650" y="175" width="90" height="90" rx="5" fill="#3b2f1e" stroke="#8c7853" stroke-width="2"/>
    
    <!-- Row 2 -->
    <rect x="430" y="285" width="90" height="90" rx="5" fill="#3b2f1e" stroke="#8c7853" stroke-width="2"/>
    <rect x="540" y="285" width="90" height="90" rx="5" fill="#3b2f1e" stroke="#8c7853" stroke-width="2"/>
    <rect x="650" y="285" width="90" height="90" rx="5" fill="#3b2f1e" stroke="#8c7853" stroke-width="2"/>
    
    <!-- Row 3 -->
    <rect x="430" y="395" width="90" height="90" rx="5" fill="#3b2f1e" stroke="#8c7853" stroke-width="2"/>
    <rect x="540" y="395" width="90" height="90" rx="5" fill="#3b2f1e" stroke="#8c7853" stroke-width="2"/>
    <rect x="650" y="395" width="90" height="90" rx="5" fill="#3b2f1e" stroke="#8c7853" stroke-width="2"/>
    
    <!-- Inner frame details for slots -->
    <g>
      <rect x="435" y="180" width="80" height="80" rx="3" fill="#2c2016" stroke="#5e4b35" stroke-width="1"/>
      <rect x="545" y="180" width="80" height="80" rx="3" fill="#2c2016" stroke="#5e4b35" stroke-width="1"/>
      <rect x="655" y="180" width="80" height="80" rx="3" fill="#2c2016" stroke="#5e4b35" stroke-width="1"/>
      
      <rect x="435" y="290" width="80" height="80" rx="3" fill="#2c2016" stroke="#5e4b35" stroke-width="1"/>
      <rect x="545" y="290" width="80" height="80" rx="3" fill="#2c2016" stroke="#5e4b35" stroke-width="1"/>
      <rect x="655" y="290" width="80" height="80" rx="3" fill="#2c2016" stroke="#5e4b35" stroke-width="1"/>
      
      <rect x="435" y="400" width="80" height="80" rx="3" fill="#2c2016" stroke="#5e4b35" stroke-width="1"/>
      <rect x="545" y="400" width="80" height="80" rx="3" fill="#2c2016" stroke="#5e4b35" stroke-width="1"/>
      <rect x="655" y="400" width="80" height="80" rx="3" fill="#2c2016" stroke="#5e4b35" stroke-width="1"/>
    </g>
  </g>
  
  <!-- Items in Storage Chest -->
  <!-- Iron Sword (Common) -->
  <g filter="url(#commonGlow)">
    <path d="M475 190 L475 240 L460 225 L475 210 L475 190 Z" fill="#9c9c9c" stroke="#636363" stroke-width="1"/>
    <rect x="465" y="190" width="20" height="5" rx="1" fill="#9c9c9c" stroke="#636363" stroke-width="1"/>
    <rect x="470" y="195" width="10" height="35" fill="#9c9c9c" stroke="#636363" stroke-width="1"/>
    <rect x="467" y="230" width="16" height="10" rx="2" fill="#694a29" stroke="#3a2913" stroke-width="1"/>
  </g>
  <text x="475" y="270" font-family="Fantasy" font-size="12" fill="#ffda79" text-anchor="middle">Iron Sword</text>
  
  <!-- Magic Scroll (Epic) -->
  <g filter="url(#epicGlow)">
    <rect x="555" y="190" width="60" height="45" rx="3" fill="#e7dbc9" stroke="#b5a68c" stroke-width="1"/>
    <path d="M555 190 C555 190, 575 200, 585 190" stroke="#b5a68c" stroke-width="1" fill="none"/>
    <path d="M585 190 C585 190, 595 200, 615 190" stroke="#b5a68c" stroke-width="1" fill="none"/>
    <path d="M560 200 L610 200" stroke="#9c1de0" stroke-width="1"/>
    <path d="M560 210 L610 210" stroke="#9c1de0" stroke-width="1"/>
    <path d="M560 220 L590 220" stroke="#9c1de0" stroke-width="1"/>
    <circle cx="570" cy="195" r="3" fill="#9c1de0"/>
    <circle cx="580" cy="195" r="2" fill="#9c1de0"/>
    <circle cx="590" cy="195" r="3" fill="#9c1de0"/>
    <rect x="555" y="235" width="60" height="5" rx="2" fill="#ad8e67" stroke="#7a624a" stroke-width="1"/>
    <rect x="565" y="235" width="40" height="12" rx="6" fill="#ad8e67" stroke="#7a624a" stroke-width="1"/>
  </g>
  <text x="585" y="270" font-family="Fantasy" font-size="12" fill="#d8a1ff" text-anchor="middle">Magic Scroll</text>
  
  <!-- Gold Coins (Rare) -->
  <g filter="url(#rareGlow)">
    <circle cx="685" cy="200" r="15" fill="#ffd700" stroke="#b79c00" stroke-width="1"/>
    <circle cx="685" cy="200" r="12" fill="#ffd233" stroke="#b79c00" stroke-width="1"/>
    <text x="685" y="205" font-family="serif" font-size="12" fill="#b79c00" text-anchor="middle" font-weight="bold">$</text>
    
    <circle cx="670" cy="215" r="15" fill="#ffd700" stroke="#b79c00" stroke-width="1"/>
    <circle cx="670" cy="215" r="12" fill="#ffd233" stroke="#b79c00" stroke-width="1"/>
    <text x="670" y="220" font-family="serif" font-size="12" fill="#b79c00" text-anchor="middle" font-weight="bold">$</text>
    
    <circle cx="695" cy="220" r="15" fill="#ffd700" stroke="#b79c00" stroke-width="1"/>
    <circle cx="695" cy="220" r="12" fill="#ffd233" stroke="#b79c00" stroke-width="1"/> 
    <text x="695" y="225" font-family="serif" font-size="12" fill="#b79c00" text-anchor="middle" font-weight="bold">$</text>
  </g>
  <text x="685" y="270" font-family="Fantasy" font-size="12" fill="#FFD700" text-anchor="middle">Gold Coins</text>
  
  <!-- Category Filters -->
  <rect x="60" y="310" width="310" height="40" rx="5" fill="#3b2f1e" stroke="#8c7853" stroke-width="2"/>
  <text x="80" y="335" font-family="Fantasy" font-size="14" fill="#e6c275">Filter by:</text>
  
  <rect x="150" y="315" width="60" height="30" rx="15" fill="#5e4b35" stroke="#8c7853" stroke-width="2"/>
  <text x="180" y="335" font-family="Fantasy" font-size="12" fill="#ffda79" text-anchor="middle">All</text>
  
  <rect x="220" y="315" width="60" height="30" rx="15" fill="#3b2f1e" stroke="#8c7853" stroke-width="1"/>
  <text x="250" y="335" font-family="Fantasy" font-size="12" fill="#c0a779" text-anchor="middle">Weapons</text>
  
  <rect x="290" y="315" width="60" height="30" rx="15" fill="#3b2f1e" stroke="#8c7853" stroke-width="1"/>
  <text x="320" y="335" font-family="Fantasy" font-size="12" fill="#c0a779" text-anchor="middle">Potions</text>
  
  <!-- Item being dragged -->
  <g opacity="0.8" transform="translate(320, 280)">
    <rect x="0" y="0" width="100" height="100" rx="5" fill="#3b2f1e" stroke="#8c7853" stroke-width="2" opacity="0.7"/>
    <g filter="url(#commonGlow)" opacity="0.9">
      <circle cx="50" cy="40" r="25" fill="#b72525"/>
      <path d="M50 20 L60 30 L60 50 Q60 60, 50 60 Q40 60, 40 50 L40 30 Z" fill="#ff4a4a"/>
      <circle cx="45" cy="35" r="5" fill="#ffecec" opacity="0.6"/>
      <rect x="45" y="18" width="10" height="5" rx="2" fill="#763a11" stroke="#5e2e0c" stroke-width="1"/>
    </g>
    <text x="50" y="85" font-family="Fantasy" font-size="12" fill="#ffda79" text-anchor="middle">Health Potion</text>
  </g>
  
  <!-- Item Tooltip -->
  <g opacity="0.95">
    <rect x="470" y="120" width="180" height="110" rx="8" fill="#2c2016" stroke="#8c7853" stroke-width="3"/>
    <rect x="475" y="125" width="170" height="100" rx="5" fill="#3b2f1e" stroke="#5e4b35" stroke-width="1"/>
    
    <text x="560" y="145" font-family="Fantasy, Copperplate Gothic" font-size="14" font-weight="bold" fill="#d8a1ff" text-anchor="middle" filter="url(#epicGlow)">Magic Scroll</text>
    <line x1="490" y1="155" x2="630" y2="155" stroke="#8c7853" stroke-width="1"/>
    
    <text x="490" y="170" font-family="Fantasy" font-size="12" fill="#ffda79">Rarity: Epic</text>
    <text x="490" y="190" font-family="Fantasy" font-size="12" fill="#e6c275">+15 Intelligence</text>
    <text x="490" y="210" font-family="Fantasy" font-size="12" fill="#e6c275">Use: Cast Arcane Missiles</text>
    
    <line x1="585" y1="230" x2="585" y2="240" stroke="#3b2f1e" stroke-width="15"/>
    <line x1="585" y1="230" x2="585" y2="242" stroke="#2c2016" stroke-width="10"/>
  </g>
  
  <!-- Highlight for Drop Target -->
  <rect x="280" y="175" width="90" height="90" rx="5" fill="none" stroke="#ffd700" stroke-width="3" stroke-dasharray="5,5"/>
</svg>
